<svg xmlns="http://www.w3.org/2000/svg" version="1.1" xmlns:xlink="http://www.w3.org/1999/xlink" xmlns:svgjs="http://svgjs.dev/svgjs" width="1500" height="1500" viewBox="0 0 1500 1500"><rect width="1500" height="1500" fill="#14293a"></rect><g transform="matrix(0.6666666666666666,0,0,0.6666666666666666,249.39393939393938,477.08096216646425)"><svg viewBox="0 0 396 216" data-background-color="#14293a" preserveAspectRatio="xMidYMid meet" height="818" width="1500" xmlns="http://www.w3.org/2000/svg" xmlns:xlink="http://www.w3.org/1999/xlink"><g id="tight-bounds" transform="matrix(1,0,0,1,0.2400000000000091,0.09996119567921369)"><svg viewBox="0 0 395.52 215.80007760864157" height="215.80007760864157" width="395.52"><g><svg viewBox="0 0 395.52 215.80007760864157" height="215.80007760864157" width="395.52"><g transform="matrix(1,0,0,1,0,133.37310543188215)"><svg viewBox="0 0 395.52 82.4269721767594" height="82.4269721767594" width="395.52"><g id="textblocktransform"><svg viewBox="0 0 395.52 82.4269721767594" height="82.4269721767594" width="395.52" id="textblock"><g><svg viewBox="0 0 395.52 82.4269721767594" height="82.4269721767594" width="395.52"><g transform="matrix(1,0,0,1,0,0)"><svg width="395.52" viewBox="0.5 -38.2 183.28 38.2" height="82.4269721767594" data-palette-color="#e9e4de"><path d="M5.7 0L5.7 0Q1.6 0 1.6-5.9L1.6-5.9 1.6-20.9 0.5-24.35Q0.7-24.6 1.07-25 1.45-25.4 2.7-26.05 3.95-26.7 5.3-26.7L5.3-26.7Q8.45-26.7 9.1-22.7L9.1-22.7Q11.55-26.5 14.93-26.5 18.3-26.5 18.3-23.3L18.3-23.3Q18.3-20.5 17.1-18.7L17.1-18.7Q16-17.1 14.8-16.15L14.8-16.15Q12.45-18.25 9.25-18.85L9.25-18.85 9.25-5.6 10.35-3.05Q10.15-2.7 9.8-2.2 9.45-1.7 8.25-0.85 7.05 0 5.7 0ZM24 0L24 0Q19.9 0 19.9-5.9L19.9-5.9Q19.9-20.9 20.25-25.65L20.25-25.65Q21.3-26.7 23.6-26.7L23.6-26.7Q27.55-26.7 27.55-20.45L27.55-20.45 27.55-5.6 28.65-3.05Q28.45-2.7 28.1-2.2 27.75-1.7 26.55-0.85 25.35 0 24 0ZM27.75-33.77Q27.75-31.7 26.75-30.38 25.75-29.05 23.72-29.05 21.7-29.05 20.72-30.53 19.75-32 19.1-35.05L19.1-35.05Q19.3-35.4 19.65-35.93 20-36.45 21.17-37.33 22.35-38.2 23.6-38.2L23.6-38.2Q25.9-38.2 26.82-37.02 27.75-35.85 27.75-33.77ZM46.9-6.95L46.9-6.95Q47.45-6.4 47.45-5.5 47.45-4.6 47.09-3.73 46.75-2.85 45.97-2 45.2-1.15 43.72-0.58 42.25 0 40.37 0 38.5 0 36.9-0.58 35.3-1.15 33.84-2.4L33.84-2.4Q30.7-5.2 30.7-11.58 30.7-17.95 32.87-21.03 35.05-24.1 37.8-24.35L37.8-24.35Q40.05-26.5 42.55-26.5L42.55-26.5Q44.25-26.5 45.9-25.15 47.55-23.8 47.55-22.05 47.55-20.3 46.32-18.7 45.09-17.1 43.15-16.45L43.15-16.45Q40.95-18.8 38.25-19.95L38.25-19.95 38.25-15.25Q38.25-10.5 40.5-8.4L40.5-8.4Q42.2-6.8 45.09-6.8L45.09-6.8Q45.95-6.8 46.9-6.95ZM57.29-20.2L57.29-5.9Q57.29-3.45 57.89-2.25L57.89-2.25Q57.59-1.45 56.22-0.73 54.84 0 53.17 0 51.49 0 50.57-1.03 49.64-2.05 49.64-3.8L49.64-3.8 49.64-24.9Q49.64-29.05 48.84-31.8L48.84-31.8 48.54-32.75Q48.74-33 49.12-33.4 49.49-33.8 50.74-34.48 51.99-35.15 53.34-35.15L53.34-35.15Q57.29-35.15 57.29-28.9L57.29-28.9 57.29-23.05Q57.94-24.5 59.44-25.5 60.94-26.5 63.47-26.5 65.99-26.5 67.79-24.53 69.59-22.55 69.59-19.1L69.59-19.1 69.59-5.6 70.69-3.05Q70.49-2.7 70.14-2.2 69.79-1.7 68.59-0.85 67.39 0 66.04 0L66.04 0Q61.94 0 61.94-5.9L61.94-5.9 61.94-15.55Q61.94-18.3 60.94-19.25 59.94-20.2 57.29-20.2L57.29-20.2ZM100.34-6.95L100.34-6.95Q100.89-6.4 100.89-5.5 100.89-4.6 100.54-3.73 100.19-2.85 99.41-2 98.64-1.15 97.16-0.58 95.69 0 93.81 0 91.94 0 90.34-0.58 88.74-1.15 87.29-2.4L87.29-2.4Q84.14-5.2 84.14-11.58 84.14-17.95 86.31-21.03 88.49-24.1 91.24-24.35L91.24-24.35Q93.49-26.5 95.99-26.5L95.99-26.5Q97.69-26.5 99.34-25.15 100.99-23.8 100.99-22.05 100.99-20.3 99.76-18.7 98.54-17.1 96.59-16.45L96.59-16.45Q94.39-18.8 91.69-19.95L91.69-19.95 91.69-15.25Q91.69-10.5 93.94-8.4L93.94-8.4Q95.64-6.8 98.54-6.8L98.54-6.8Q99.39-6.8 100.34-6.95ZM122.34-14.5L122.34-14.5Q122.34-7.45 119.24-3.73 116.14 0 111.49 0L111.49 0Q108.24 0 105.64-2.3L105.64-2.3Q104.24-3.5 103.39-5.93 102.54-8.35 102.54-11.7L102.54-11.7Q102.54-16.75 104.44-19.43 106.34-22.1 108.54-22.65L108.54-22.65Q109.34-25.1 111.89-26.1L111.89-26.1Q113.04-26.5 114.44-26.5L114.44-26.5Q122.34-26.5 122.34-14.5ZM109.69-13.6L109.69-13.6Q109.69-6 112.39-6L112.39-6Q114.79-6 114.79-13.15L114.79-13.15Q114.79-16.65 113.66-18.07 112.54-19.5 110.54-19.5L110.54-19.5Q109.69-17.9 109.69-13.6ZM143.88-28.9L143.88-28.9 143.88-5.6 144.93-3.05Q144.73-2.7 144.38-2.2 144.03-1.7 142.86-0.85 141.68 0 140.33 0L140.33 0Q137.53 0 136.58-2.8L136.58-2.8Q134.98 0 131.88 0 128.78 0 126.88-2.02 124.98-4.05 124.98-7L124.98-7 124.98-14.7Q124.98-19.65 127.83-22.58 130.68-25.5 134.83-25.5L134.83-25.5Q135.48-25.5 136.23-25.35L136.23-25.35Q136.13-28.5 135.33-31.75L135.33-31.75 135.08-32.75Q135.28-33 135.66-33.4 136.03-33.8 137.28-34.48 138.53-35.15 139.93-35.15L139.93-35.15Q143.88-35.15 143.88-28.9ZM132.13-19.85L132.13-9.8Q132.13-7.85 133.01-6.93 133.88-6 136.23-5.85L136.23-5.85 136.23-16.75Q136.08-18.1 135.11-18.78 134.13-19.45 132.13-19.85L132.13-19.85ZM163.93-7.15L163.93-7.15Q164.48-6.6 164.48-5.7 164.48-4.8 164.01-3.88 163.53-2.95 162.61-2.08 161.68-1.2 159.98-0.6 158.28 0 156.26 0 154.23 0 152.63-0.58 151.03-1.15 149.58-2.4L149.58-2.4Q146.43-5.2 146.43-11.55 146.43-17.9 148.58-20.98 150.73-24.05 153.48-24.35L153.48-24.35Q155.48-26.5 158.31-26.5 161.13-26.5 162.91-24.45 164.68-22.4 164.68-18.85L164.68-18.85Q164.68-14.7 161.63-12.3L161.63-12.3Q159.13-10.3 155.63-9.25L155.63-9.25Q157.38-6.95 161.43-6.95L161.43-6.95Q162.58-6.95 163.93-7.15ZM157.73-16.4L157.73-16.4Q157.73-19.45 153.98-19.75L153.98-19.75 153.98-15.25Q153.98-13 154.38-11.65L154.38-11.65Q157.73-13.5 157.73-16.4ZM171.18 0L171.18 0Q167.08 0 167.08-5.9L167.08-5.9 167.08-20.9 165.98-24.35Q166.18-24.6 166.55-25 166.93-25.4 168.18-26.05 169.43-26.7 170.78-26.7L170.78-26.7Q173.93-26.7 174.58-22.7L174.58-22.7Q177.03-26.5 180.4-26.5 183.78-26.5 183.78-23.3L183.78-23.3Q183.78-20.5 182.58-18.7L182.58-18.7Q181.48-17.1 180.28-16.15L180.28-16.15Q177.93-18.25 174.73-18.85L174.73-18.85 174.73-5.6 175.83-3.05Q175.63-2.7 175.28-2.2 174.93-1.7 173.73-0.85 172.53 0 171.18 0Z" opacity="1" transform="matrix(1,0,0,1,0,0)" fill="#e9e4de" class="wordmark-text-0" data-fill-palette-color="primary" id="text-0"></path></svg></g></svg></g></svg></g></svg></g><g transform="matrix(1,0,0,1,147.43662769393117,0)"><svg viewBox="0 0 100.64674461213762 113.9140755482815" height="113.9140755482815" width="100.64674461213762"><g><svg xmlns="http://www.w3.org/2000/svg" xmlns:xlink="http://www.w3.org/1999/xlink" version="1.1" x="8" y="0" viewBox="18.089993997938553 7.299821543952104 64.06400620235101 86.21468050424879" enable-background="new 0 0 100 100" xml:space="preserve" height="113.9140755482815" width="84.64674461213762" class="icon-icon-0" data-fill-palette-color="accent" id="icon-0"><path d="M73.857 52.036C72.463 47.88 66.898 45.279 62.93 43.536 61.376 42.855 57.072 41.7 56.555 39.743 55.742 36.648 58.827 34.288 60.199 31.851 61.644 29.281 62.848 25.804 63.083 22.897 63.929 12.465 57.531 6.361 48.363 7.418 41.695 8.185 37.713 13.156 37.283 19.559 36.846 26.081 39.266 30.898 41.837 34.432 42.961 35.977 44.141 36.972 43.962 38.833 43.749 41.034 41.397 41.647 39.713 42.323 37.716 43.125 35.569 44.343 34.553 44.903 31.072 46.828 27.253 49.142 26.371 52.3H73.932C73.906 52.21 73.883 52.111 73.857 52.036" fill="#99abc1" data-fill-palette-color="accent"></path><g fill="#99abc1" data-fill-palette-color="accent"><circle fill="none" cx="50.65" cy="72.016" r="1.1"></circle><path fill="none" d="M79.654 53.473H20.587C19.76 53.473 19.087 54.146 19.087 54.973L23.084 88.591C23.087 89.477 23.76 90.15 24.587 90.15H75.654C76.481 90.15 77.154 89.477 77.154 88.65L81.158 54.915C81.154 54.146 80.481 53.473 79.654 53.473M50.65 74.153A2.14 2.14 0 0 1 48.513 72.015 2.14 2.14 0 0 1 50.65 69.878 2.14 2.14 0 0 1 52.787 72.015 2.14 2.14 0 0 1 50.65 74.153"></path><path fill="#99abc1" d="M79.654 52.473H20.587C19.209 52.473 18.087 53.594 18.09 55.032L22.087 88.65C22.087 90.029 23.209 91.15 24.587 91.15H75.654C77.033 91.15 78.154 90.029 78.15 88.709L82.154 54.974A2.5 2.5 0 0 0 79.654 52.473M77.154 88.649C77.154 89.476 76.481 90.149 75.654 90.149H24.587C23.76 90.149 23.087 89.476 23.084 88.59L19.087 54.972C19.087 54.145 19.76 53.472 20.587 53.472H79.654C80.481 53.472 81.154 54.145 81.158 54.913z" data-fill-palette-color="accent"></path><path fill="#99abc1" d="M50.65 69.879A2.14 2.14 0 0 0 48.513 72.016 2.14 2.14 0 0 0 50.65 74.154 2.14 2.14 0 0 0 52.787 72.016 2.14 2.14 0 0 0 50.65 69.879M50.65 73.153A1.138 1.138 0 1 1 51.787 72.015 1.14 1.14 0 0 1 50.65 73.153" data-fill-palette-color="accent"></path></g><path d="M75.997 91.467H23.76A1.024 1.024 0 1 0 23.76 93.514H75.997A1.023 1.023 0 0 0 75.997 91.467" fill="#99abc1" data-fill-palette-color="accent"></path></svg></g></svg></g><g><rect width="147.43662769393117" height="7.433349415535449" y="105.48072613274604" x="248.08337230606878" fill="#99abc1" data-fill-palette-color="accent"></rect><rect width="147.43662769393117" height="7.433349415535449" y="105.48072613274604" x="0" fill="#99abc1" data-fill-palette-color="accent"></rect><rect width="147.43662769393117" height="7.433349415535449" y="90.61402730167515" x="248.08337230606878" fill="#99abc1" data-fill-palette-color="accent"></rect><rect width="147.43662769393117" height="7.433349415535449" y="90.61402730167515" x="0" fill="#99abc1" data-fill-palette-color="accent"></rect></g></svg></g><defs></defs></svg><rect width="395.52" height="215.80007760864157" fill="none" stroke="none" visibility="hidden"></rect></g></svg></g></svg>