<svg width="1280" height="720" xmlns="http://www.w3.org/2000/svg" xmlns:xlink="http://www.w3.org/1999/xlink" overflow="hidden"><g><rect x="0" y="0" width="1280" height="720" fill="#FFFFFF"/><path d="M196.983 182.439 40.484 271.439 40.484 449.438 196.983 538.439 353.484 449.438 353.484 271.439 196.983 182.439Z" stroke="#000000" stroke-width="26.6667" stroke-miterlimit="8" fill="none" fill-rule="evenodd"/><path d="M196.483 184.939 39.9839 358.439M196.483 184.939 352.984 358.439M196.483 531.939 39.9839 358.439M196.483 531.939 352.984 358.439" stroke="#000000" stroke-width="20" stroke-miterlimit="8" fill="#FFFFFF" fill-rule="evenodd"/><path d="M230.484 358.935C230.484 376.886 215.485 391.435 196.984 391.435 178.482 391.435 163.484 376.886 163.484 358.935 163.484 340.985 178.482 326.435 196.984 326.435 215.485 326.435 230.484 340.985 230.484 358.935Z" stroke="#000000" stroke-width="13.4924" stroke-miterlimit="8" fill-rule="evenodd"/><path d="M387.984 435.26 387.984 284.504 414.492 284.504 469.714 385.179 469.714 284.504 495.025 284.504 495.025 435.26 467.689 435.26 413.295 336.951 413.295 435.26ZM523.787 435.26 523.787 284.504 623.835 284.504 623.835 310.009 551.03 310.009 551.03 343.43 618.771 343.43 618.771 368.831 551.03 368.831 551.03 409.861 626.411 409.861 626.411 435.26ZM635.825 435.26 681.936 356.593 640.15 284.504 671.997 284.504 699.055 332.941 725.562 284.504 757.131 284.504 715.162 357.724 761.274 435.26 728.416 435.26 698.504 383.122 668.497 435.26ZM775.106 284.504 802.349 284.504 802.349 366.156C802.349 379.113 802.686 387.512 803.36 391.351 804.529 397.52 807.302 402.474 811.692 406.21 816.079 409.945 822.074 411.815 829.685 411.815 837.417 411.815 843.245 410.048 847.172 406.519 851.098 402.986 853.46 398.651 854.258 393.51 855.055 388.37 855.454 379.832 855.454 367.903L855.454 284.504 882.701 284.504 882.701 363.687C882.701 381.788 881.965 394.571 880.49 402.045 879.015 409.517 876.304 415.824 872.347 420.965 868.386 426.109 863.093 430.206 856.468 433.255 849.84 436.307 841.189 437.832 830.514 437.832 817.628 437.832 807.855 436.169 801.196 432.842 794.539 429.519 789.278 425.2 785.413 419.885 781.548 414.574 779.001 409.004 777.774 403.177 775.993 394.539 775.106 381.788 775.106 364.921ZM904.462 386.21 930.973 383.329C932.568 393.269 935.802 400.572 940.684 405.233 945.56 409.894 952.142 412.227 960.424 412.227 969.201 412.227 975.811 410.151 980.26 406.003 984.709 401.855 986.932 397.008 986.932 391.454 986.932 387.889 985.998 384.853 984.125 382.352 982.254 379.851 978.986 377.672 974.324 375.822 971.133 374.588 963.862 372.396 952.509 369.24 937.905 365.195 927.659 360.225 921.769 354.33 913.484 346.034 909.344 335.923 909.344 323.994 909.344 316.317 911.292 309.135 915.187 302.451 919.086 295.766 924.697 290.677 932.031 287.179 939.364 283.682 948.212 281.935 958.585 281.935 975.521 281.935 988.264 286.084 996.828 294.377 1005.39 302.673 1009.88 313.745 1010.31 327.594L983.067 328.929C981.902 321.184 979.401 315.614 975.564 312.22 971.73 308.826 965.977 307.131 958.309 307.131 950.392 307.131 944.196 308.945 939.713 312.578 936.832 314.911 935.391 318.028 935.391 321.938 935.391 325.503 936.739 328.552 939.438 331.088 942.873 334.311 951.22 337.67 964.477 341.167 977.728 344.664 987.531 348.28 993.882 352.016 1000.23 355.752 1005.2 360.86 1008.79 367.339 1012.38 373.817 1014.18 381.82 1014.18 391.351 1014.18 399.989 1012.03 408.079 1007.73 415.618 1003.44 423.16 997.366 428.765 989.507 432.433 981.654 436.101 971.866 437.935 960.149 437.935 943.089 437.935 929.99 433.529 920.848 424.72 911.706 415.911 906.243 403.073 904.462 386.21ZM1204.17 435.26 1174.53 435.26 1162.75 401.017 1108.81 401.017 1097.68 435.26 1068.78 435.26 1121.33 284.504 1150.14 284.504ZM1154 375.616 1135.41 319.675 1117.19 375.616ZM1217.74 435.26 1217.74 284.504 1244.98 284.504 1244.98 435.26Z" fill-rule="evenodd"/></g></svg>